OpenSim_Sub02_EMGStiffKnee_GRF.mot
version=1
nRows=52
nColumns=19
inDegrees=no
endheader
time	lFx	lFy	lFz	lCOPx	lCOPy	lCOPz	rFx	rFy	rFz	rCOPx	rCOPy	rCOPz	lMx	lMy	lMz	rMx	rMy	rMz
39.45000000	-3.66774619	0.49584875	-0.04340901	-0.00124840	0	0.00293359	-96.61884156	582.39003903	-62.89762996	0.92743841	0	-0.39877285	0	-0.07873335	0	0	-2.16972632	0
39.46000000	-1.85978421	-1.42844933	-0.03576470	-0.01381365	0	0.02080929	-91.60512708	577.93498976	-60.08412436	0.92452768	0	-0.39844450	0	-0.07343286	0	0	-2.01706925	-0.00000000
39.47000000	-1.17130588	-1.30274390	-0.02703779	-0.01081407	0	0.01601294	-86.30557243	570.37424272	-56.58357756	0.92106614	0	-0.39820894	0	-0.03847370	0	0	-1.82567530	-0.00000000
39.48000000	-1.13004376	-0.68483084	0.01415189	-0.00508062	0	0.00742958	-80.87001061	559.15938648	-53.51547763	0.91709795	0	-0.39796894	0	-0.01167044	0	0	-1.66093743	0
39.49000000	-1.31609949	-0.23421662	-0.01830092	-0.00124657	0	0.00177040	-75.60362233	544.54175317	-50.92843777	0.91287643	0	-0.39773128	0	0.00073194	0	0	-1.47367226	0.00000000
39.50000000	-1.51105736	0.04684215	-0.00257680	0.00033428	0	-0.00053118	-70.95294354	527.98759888	-48.50105837	0.90872346	0	-0.39742787	0	0.00366820	0	0	-1.30515522	0
39.51000000	-1.63742786	0.27446832	0.06075293	0.00059840	0	-0.00089539	-67.14426891	511.21024221	-46.56822351	0.90449109	0	-0.39703530	0	0.00276606	0	0	-1.20124872	0.00000000
39.52000000	-1.69450525	0.45545353	0.17755286	0.00039455	0	-0.00058220	-64.00351176	495.45716030	-45.62089368	0.90024505	0	-0.39656313	0	0.00126396	0	0	-1.12178225	0
39.53000000	-1.70431426	0.57878893	0.25869612	0.00016044	0	-0.00023350	-61.24755142	481.26814764	-45.53056364	0.89598793	0	-0.39606289	0	0.00029013	0	0	-1.13802471	0
39.54000000	-1.70227281	0.62393100	0.24012098	0.00002535	0	-0.00003480	-58.60602312	468.73571882	-45.83024089	0.89161333	0	-0.39559694	0	-0.00009935	0	0	-1.24533818	0
39.55000000	-1.70930915	0.58401659	0.16963660	-0.00002184	0	0.00003350	-55.97922499	458.01042370	-46.33639501	0.88685181	0	-0.39521320	0	-0.00015675	0	0	-1.29715079	0.00000000
39.56000000	-1.71828878	0.51341397	0.11421718	-0.00002416	0	0.00003609	-53.37940426	449.55327116	-46.96587633	0.88149805	0	-0.39490348	0	-0.00010031	0	0	-1.29150123	0
39.57000000	-1.74200007	0.45106770	0.12410393	-0.00001333	0	0.00001998	-51.05417517	443.69196801	-47.49464582	0.87576672	0	-0.39466284	0	-0.00003943	0	0	-1.25382039	0.00000000
39.58000000	-1.76892340	0.26689187	0.15445234	-0.00000376	0	0.00000610	-49.20772128	440.70110697	-47.77515893	0.86998043	0	-0.39446937	0	-0.00000465	0	0	-1.16328082	0.00000000
39.59000000	-1.77388103	0.05458068	0.18731566	0.00000092	0	-0.00000075	-47.73333443	440.65403100	-47.76487799	0.86408063	0	-0.39430569	0	0.00000823	0	0	-1.04425720	0
39.60000000	-1.74824931	-0.05189709	0.21014023	0.00000068	0	-0.00000155	-46.23509649	443.10466426	-47.48150551	0.85775772	0	-0.39425597	0	0.00001001	0	0	-0.86468609	-0.00000000
39.61000000	-1.72524630	-0.06919121	0.24141904	-0.00000457	0	0.00000250	-44.41566720	447.31035792	-47.11024625	0.85113722	0	-0.39437956	0	0.00000649	0	0	-0.62745512	0
39.62000000	-1.72503952	-0.07089839	0.26855571	-0.00001477	0	0.00001079	-42.37193761	452.44199296	-46.73431460	0.84446418	0	-0.39466262	0	-0.00000374	0	0	-0.43572424	-0.00000000
39.63000000	-1.75357095	-0.10353737	0.28256784	-0.00002559	0	0.00002015	-40.27783200	457.72949712	-46.36633182	0.83781226	0	-0.39504829	0	-0.00002634	0	0	-0.33423677	0
39.64000000	-1.81483051	-0.14707512	0.31012536	-0.00002089	0	0.00001873	-38.24641709	462.72649359	-46.05154210	0.83116285	0	-0.39549053	0	-0.00006235	0	0	-0.26550665	0
39.65000000	-1.88219177	-0.15044109	0.36995424	0.00003362	0	-0.00001983	-36.21522245	467.33351025	-45.74403545	0.82417009	0	-0.39594909	0	-0.00009014	0	0	-0.20349413	-0.00000000
39.66000000	-1.91957290	-0.07976382	0.39879017	0.00018210	0	-0.00013173	-34.23260579	471.93550335	-45.41935304	0.81706127	0	-0.39636771	0	-0.00003980	0	0	-0.14644073	-0.00000000
39.67000000	-1.91585451	-0.01771689	0.39715702	0.00042944	0	-0.00032761	-32.33406385	476.98425870	-45.10479329	0.81039657	0	-0.39674355	0	0.00021945	0	0	-0.09718856	0
39.68000000	-1.89255550	0.01026439	0.43612223	0.00062301	0	-0.00050246	-30.38034339	482.53418057	-44.79965079	0.80417850	0	-0.39711847	0	0.00082184	0	0	-0.05174411	0
39.69000000	-1.92951878	0.12972808	0.47869579	0.00027724	0	-0.00029463	-28.11587199	488.38047520	-44.55323692	0.79777706	0	-0.39754453	0	0.00168165	0	0	0.03326426	0.00000000
39.70000000	-2.22210409	0.61223066	0.55361556	-0.00151434	0	0.00100406	-25.31477158	494.36052152	-44.48762915	0.79094241	0	-0.39803596	0	0.00202762	0	0	0.17992410	0
39.71000000	-3.00555170	1.88408942	0.69789799	-0.00568341	0	0.00418848	-22.02207482	500.35342741	-44.60555660	0.78373076	0	-0.39856038	0	-0.00017438	0	0	0.33654820	-0.00000000
39.72000000	-4.31653464	4.13825320	0.90526283	-0.01164259	0	0.00900471	-18.39617962	506.12180214	-44.88335512	0.77636960	0	-0.39911600	0	-0.00822188	0	0	0.48718045	0.00000000
39.73000000	-5.82521067	6.82572699	1.09715368	-0.01406224	0	0.01166197	-14.54566653	511.09205138	-45.25233220	0.76930986	0	-0.39970334	0	-0.02448836	0	0	0.62325702	-0.00000000
39.74000000	-7.25466873	9.54240890	1.20565011	0.00113284	0	0.00152754	-10.33995551	514.45091386	-45.49035480	0.76255134	0	-0.40025190	0	-0.04373012	0	0	0.70245260	-0.00000000
39.75000000	-8.58068241	12.36123210	1.24444041	0.05678755	0	-0.03954824	-5.74808516	515.35039403	-45.50444683	0.75591471	0	-0.40071852	0	-0.04090750	0	0	0.76587816	0
39.76000000	-10.05712852	15.66138068	1.31612952	0.16941492	0	-0.12676859	-0.83601890	513.22792884	-45.35159112	0.74931418	0	-0.40109504	0	0.04069052	0	0	0.86588633	0.00000000
39.77000000	-12.18593433	20.04380413	1.45906772	0.31746276	0	-0.24824867	4.32671498	507.89819058	-45.12543643	0.74270574	0	-0.40141459	0	0.28363499	0	0	0.96542926	0.00000000
39.78000000	-15.58826475	26.34233912	1.77542733	0.46209203	0	-0.37664260	9.51416827	499.74208775	-44.98087088	0.73587681	0	-0.40178897	0	0.73032925	0	0	1.08569807	0
39.79000000	-20.94416277	35.68200691	2.63417342	0.58774134	0	-0.49519346	14.47169598	489.77357055	-44.90645769	0.72877223	0	-0.40226321	0	1.30683941	0	0	1.22534862	0.00000000
39.80000000	-28.78553255	49.86952964	4.67686567	0.67765288	0	-0.58099763	18.96947357	479.12503861	-44.79036798	0.72155108	0	-0.40276740	0	1.67683607	0	0	1.37230598	0.00000000
39.81000000	-38.86250134	71.53443169	8.49077178	0.72366033	0	-0.62269302	23.15171808	468.22120850	-44.59620751	0.71451721	0	-0.40321817	0	1.52193547	0	0	1.52101253	0.00000000
39.82000000	-48.80436167	102.80374368	13.83097728	0.74417991	0	-0.63457572	27.27778407	456.51806559	-44.31291520	0.70785049	0	-0.40361530	0	0.91600604	0	0	1.65077562	0.00000000
39.83000000	-52.94489408	141.46638683	18.40305235	0.75478069	0	-0.63349310	31.50576171	442.35463159	-43.79697485	0.70137929	0	-0.40398262	0	0.61164637	0	0	1.76479634	-0.00000000
39.84000000	-47.05129833	180.52083086	18.90331527	0.75809639	0	-0.62945653	35.66178872	423.83377746	-42.77078403	0.69518397	0	-0.40432703	0	1.72873637	0	0	1.87211948	-0.00000000
39.85000000	-35.84186226	216.71889413	17.37024793	0.75394119	0	-0.62647842	39.38775192	399.54613647	-40.86187578	0.68937177	0	-0.40469406	0	3.52011863	0	0	1.93835624	0
39.86000000	-25.96862497	249.86746815	18.59148885	0.74655645	0	-0.62538904	42.32461377	369.09749266	-37.91557703	0.68398053	0	-0.40509702	0	4.11847801	0	0	1.92673279	0
39.87000000	-18.87174234	278.71120237	21.83292870	0.74126288	0	-0.62594765	43.99831992	333.20276849	-34.12241200	0.67891069	0	-0.40546113	0	3.93496382	0	0	1.87340564	-0.00000000
39.88000000	-14.66140172	303.08453731	26.03315073	0.73910951	0	-0.62728675	43.89168710	293.53180358	-29.81952226	0.67429652	0	-0.40568633	0	3.43227225	0	0	1.78841441	0.00000000
39.89000000	-13.03076820	324.29360765	31.08014717	0.73849532	0	-0.62871013	41.50446333	252.05295307	-25.46370350	0.67054976	0	-0.40594011	0	2.62699415	0	0	1.64522468	0.00000000
39.90000000	-12.60343655	343.89739752	36.02260607	0.73791081	0	-0.62984473	36.74373378	210.77647659	-21.52212376	0.66845424	0	-0.40671880	0	1.80254562	0	0	1.43912537	0.00000000
39.91000000	-11.90384910	362.97991901	40.06502703	0.73658075	0	-0.63048905	30.02813280	171.99441682	-18.23138756	0.66908360	0	-0.40860221	0	1.21002720	0	0	1.19275436	0
39.92000000	-10.49154325	382.18632477	43.00808424	0.73422920	0	-0.63064691	22.08442223	137.40391461	-15.50709827	0.67202917	0	-0.41243835	0	0.90081784	0	0	0.94321780	0
39.93000000	-8.31652956	401.68333860	44.82523499	0.73067043	0	-0.63045031	13.75278155	107.78958814	-13.20687912	0.67627129	0	-0.41871870	0	0.92369287	0	0	0.75668765	0
39.94000000	-5.54554801	421.79776313	45.97821799	0.72623124	0	-0.63008895	5.79823079	83.43708065	-11.16077958	0.67760846	0	-0.42490010	0	1.15165468	0	0	0.60674134	-0.00000000
39.95000000	-2.48246994	442.79425271	46.88851538	0.72108664	0	-0.62973132	-1.04078078	64.12473176	-9.25903774	0.66359768	0	-0.42123188	0	1.45067541	0	0	0.40932566	0.00000000
39.96000000	0.72422182	464.70515415	47.74838755	0.71527724	0	-0.62944790	-6.09848471	48.53396492	-7.59924359	0.60515716	0	-0.38901545	0	1.70137164	0	0	0.17964334	0
